<?xml version="1.0" encoding="UTF-8"?>
<svg id="Layer_1" xmlns="http://www.w3.org/2000/svg" version="1.1" viewBox="0 0 595.28 841.89">
  <!-- Generator: Adobe Illustrator 29.0.0, SVG Export Plug-In . SVG Version: 2.1.0 Build 186)  -->
  <defs>
    <style>
      .st0 {
        fill: #c51e5d;
      }

      .st1 {
        stroke-width: 9px;
      }

      .st1, .st2 {
        fill: none;
        stroke: #c51e5d;
      }

      .st1, .st2, .st3 {
        stroke-miterlimit: 10;
      }

      .st2 {
        stroke-width: 11px;
      }

      .st3 {
        fill: #fff;
        stroke: #be3657;
        stroke-linecap: round;
        stroke-width: 2px;
      }
    </style>
  </defs>
  <g id="Layer_2">
    <g>
      <g>
        <polygon class="st0" points="190.8 413.84 182.57 438.29 152.2 350.71 168.69 350.47 190.8 413.84"/>
        <polygon class="st0" points="187.66 438.37 182.57 438.29 212.04 350.71 217.64 350.71 187.66 438.37"/>
        <rect class="st0" x="212.04" y="350.71" width="25.33" height="87.4"/>
        <rect class="st0" x="152.17" y="350.71" width="5.96" height="87.58"/>
        <path class="st0" d="M281.11,339.18h-24.21l-36.99-29.38-20.73-16.46c-.78-.63-.35-3.44.58-3.48l21.05.24,60.31,49.09Z"/>
        <rect class="st0" x="213.25" y="431.87" width="56.22" height="6.24"/>
        <polygon class="st0" points="203.14 295.01 160.68 346.29 152.2 346.29 199.33 289.85 203.14 295.01"/>
        <rect class="st0" x="256.46" y="339.18" width="24.65" height="98.94"/>
      </g>
      <g>
        <path class="st1" d="M300.51,350.53c-.52,14.83,6.65,27.77,17.22,36.26,9.54,7.66,23.32,8.86,42.57,3.55,28.43-7.85,37.75-13.44,38.8-14.04,12.27-6.96,18.03-23.11,18.13-37.77.16-25.04-19.71-45.21-53.61-44.3-33.9.91-62.17,29.44-63.1,56.3Z"/>
        <path class="st2" d="M301.1,350.46c-.51,13,5.62,25.24,14.38,33.26,14.97,13.7,23.48,7.24,43.43,2.64,17.23-3.97,24.31-9.08,32.77-14.28,11.93-7.34,19.08-18.39,17.9-32.38-1.1-13.06-7.43-23.7-18-30.13-9-5.48-19.23-7.19-32.15-7.73-14.98-.63-29.06,4.52-39.36,13.01-11.58,9.55-18.49,23.22-18.98,35.61Z"/>
      </g>
      <path class="st0" d="M335.81,438.11h25.85v-104.29h-25.85v104.29Z"/>
      <polygon class="st0" points="430.32 438.11 399.98 438.31 372.73 390.31 397.05 380.13 430.32 438.11"/>
      <path class="st3" d="M429.45,315.93h0c-4.47,22.58-19.94,45.62-44.16,58.9-16.88,9.26-34.36,13.11-50.52,13.11l.02,7.29c21.44.43,42.7-6.39,58.89-16.75,20.51-13.13,37.88-36.35,42.02-59.33l-6.25-3.22Z"/>
      <path class="st0" d="M454.96,281.05c.24,1.78.39,3.74.4,5.86.01,2.67-.21,5.13-.54,7.35,1.27.79,2.55,1.58,3.82,2.37.52-2.12.95-4.44,1.22-6.91.17-1.55.27-3.03.3-4.43-1.74-1.41-3.47-2.82-5.21-4.23Z"/>
      <path class="st0" d="M415.16,271.06c.95.55,2.16,1.31,3.45,2.31,2.8,2.16,4.72,4.43,6.01,6.38.87,1.32,2.52,3.86,3.22,7.56.68,3.59.19,6.75-.44,9.03,1.6-.45,3.2-.89,4.8-1.34.08-.44.18-1.06.26-1.79.07-.68.31-3.16-.03-5.63-.44-3.17-1.73-5.56-2.62-7.19-1.32-2.39-3.66-5.84-7.88-9.39-2.26.02-4.51.05-6.77.07Z"/>
      <path class="st0" d="M425.8,271.34c.59.48,1.35,1.14,2.17,1.97,1.2,1.21,2.94,3.18,4.37,5.85,1.81,3.38,2.26,6.24,2.51,7.97.37,2.53.35,4.92.1,7.08,1.43-.19,2.86-.38,4.28-.56.28-1.74.46-4.09.11-6.8-.4-3.11-1.33-5.33-1.96-6.79-.84-1.96-2.18-4.53-4.39-7.32-2.4-.46-4.81-.92-7.21-1.38Z"/>
      <path class="st0" d="M436.29,273.21c.75,1.1,1.67,2.59,2.56,4.4.79,1.6,1.89,3.88,2.51,6.88.42,2.06.74,5.04.15,8.74,1.45-.01,2.91-.03,4.36-.04.28-1.89.43-4.04.27-6.39-.32-4.66-1.73-8.44-3.13-11.18-2.24-.8-4.48-1.61-6.72-2.41Z"/>
      <path class="st0" d="M446.06,275.8c.81,1.75,1.56,3.83,2.02,6.22.34,1.75.43,3.13.49,4.1.11,1.87.1,4.09-.19,6.6,1.44.37,2.89.74,4.33,1.11.17-1.27.3-2.59.37-3.96.2-4.01-.16-7.62-.76-10.74-2.08-1.11-4.17-2.23-6.25-3.34Z"/>
      <polygon class="st0" points="421.61 251.94 416.26 244.65 425.1 246.39 432.43 240.56 430.35 249.73 435.7 257.01 426.86 255.28 419.53 261.11 421.61 251.94"/>
      <polygon class="st0" points="394.21 264.49 389.16 258.57 397.64 259.57 404.76 254.21 402.64 262.14 407.7 268.07 399.22 267.06 392.09 272.43 394.21 264.49"/>
      <polygon class="st0" points="401.58 235.5 397.24 230.42 404.45 231.33 410.46 226.8 408.72 233.54 413.06 238.62 405.85 237.71 399.84 242.24 401.58 235.5"/>
      <path class="st0" d="M458.34,302.02c-1.12,6.22-9.81,13.86-16.6,16.65-8.73,3.59-16.19.17-17.68-7.87-1.02-5.49.63-12.05,1.69-12.31.81-.2,3.44-.92,6.51-1.38,3.88-.57,9.53-1.41,13.56-.85,3.94.54,7.92,2.18,10.1,3.61,1.24.82,2.41,2.15,2.41,2.15Z"/>
      <g>
        <path class="st0" d="M175.26,521.53h-9.99l-2.89-14.51h-14.47l-2.87,14.51h-9.93l14.81-65.22h10.87l14.47,65.22ZM160.28,495.74l-4.37-21.92c-.32-1.64-.55-3.59-.68-5.87h-.23c-.09,1.91-.33,3.81-.71,5.69l-4.43,22.1h10.41Z"/>
        <path class="st0" d="M204.56,521.53h-24.23v-65.22h9.16v53.3h15.06v11.92Z"/>
        <path class="st0" d="M234.26,521.53h-24.23v-65.22h9.16v53.3h15.06v11.92Z"/>
        <path class="st0" d="M273.87,521.53h-10.52l-6.33-16.78c-.47-1.27-.93-2.41-1.36-3.41-.44-1-.88-1.86-1.32-2.57-.44-.71-.91-1.26-1.39-1.64-.48-.38-1.01-.57-1.57-.57h-2.47v24.97h-9.16v-65.22h14.53c9.87,0,14.81,5.91,14.81,17.74,0,2.27-.22,4.37-.65,6.3-.44,1.93-1.05,3.66-1.84,5.21s-1.75,2.88-2.88,4c-1.13,1.12-2.38,2-3.76,2.64v.18c.61.3,1.19.8,1.76,1.48.57.68,1.12,1.48,1.65,2.39.53.91,1.04,1.89,1.52,2.93.48,1.05.92,2.07,1.32,3.07l7.69,19.28ZM248.9,467.32v18.15h3.97c1.97,0,3.55-.91,4.74-2.73,1.21-1.85,1.82-4.14,1.82-6.87,0-5.7-2.13-8.55-6.38-8.55h-4.14Z"/>
        <path class="st0" d="M294.29,522.67c-5.83,0-10.57-3.04-14.24-9.12-3.67-6.08-5.5-14-5.5-23.76,0-10.31,1.86-18.65,5.59-25.01,3.73-6.37,8.66-9.55,14.81-9.55,5.81,0,10.5,3.05,14.09,9.14,3.58,6.09,5.38,14.13,5.38,24.11s-1.86,18.51-5.57,24.79c-3.72,6.28-8.56,9.41-14.54,9.41ZM294.69,467.86c-3.22,0-5.77,1.93-7.66,5.8-1.89,3.86-2.84,8.98-2.84,15.35s.95,11.57,2.84,15.33c1.89,3.76,4.37,5.64,7.43,5.64s5.66-1.83,7.52-5.48c1.85-3.65,2.78-8.73,2.78-15.21s-.9-12.02-2.69-15.78c-1.8-3.76-4.26-5.64-7.38-5.64Z"/>
        <path class="st0" d="M354.32,493.29c0,19.59-5.69,29.38-17.08,29.38s-16.57-9.57-16.57-28.7v-37.66h9.19v37.84c0,10.55,2.57,15.83,7.72,15.83s7.57-5.09,7.57-15.28v-38.39h9.16v36.98Z"/>
        <path class="st0" d="M399.77,521.53h-9.25l-16.77-40.98c-.98-2.39-1.66-4.2-2.04-5.41h-.11c.15,2.3.23,5.82.23,10.55v35.84h-8.65v-65.22h9.87l16.14,39.71c.74,1.79,1.42,3.56,2.04,5.32h.11c-.15-1.52-.23-4.5-.23-8.96v-36.07h8.65v65.22Z"/>
        <path class="st0" d="M409.08,521.53v-65.22h14.41c14.45,0,21.67,10.6,21.67,31.79,0,10.16-1.97,18.27-5.92,24.33-3.94,6.06-9.2,9.1-15.76,9.1h-14.41ZM418.24,468.27v41.34h4.54c3.97,0,7.09-1.91,9.35-5.73,2.26-3.82,3.39-9.02,3.39-15.6,0-6.21-1.12-11.1-3.36-14.67-2.24-3.56-5.39-5.34-9.43-5.34h-4.48Z"/>
      </g>
    </g>
  </g>
</svg>